<?xml version="1.0" standalone="no"?>
<!DOCTYPE svg PUBLIC "-//W3C//DTD SVG 1.1//EN" "http://www.w3.org/Graphics/SVG/1.1/DTD/svg11.dtd" >
<svg xmlns="http://www.w3.org/2000/svg">
<metadata>Generated by IcoMoon</metadata>
<defs>
<font id="app-p6-icons" horiz-adv-x="1024">
<font-face units-per-em="1024" ascent="960" descent="-64" />
<missing-glyph horiz-adv-x="1024" />
<glyph unicode="&#x20;" horiz-adv-x="512" d="" />
<glyph unicode="&#xe900;" glyph-name="chevron-right" horiz-adv-x="614" d="M600.747 453.685l-504.627 506.315-96.119-96.441 408.508-409.874-408.508-409.874 96.119-96.441z" />
<glyph unicode="&#xe901;" glyph-name="survey-complete" horiz-adv-x="1229" d="M1195.974 349.442c0 19.197-4.569 37.671-13.335 54.371 28.887 22.050 46.161 56.295 46.161 93.462 0 64.939-52.794 117.776-117.68 117.776h-318.631c27.444 70.227 42.399 155.468 42.399 243.604 0 55.887-45.423 101.344-101.262 101.344s-101.262-45.457-101.262-101.344c0-199.754-139.229-349.218-346.45-371.925-1.431-0.162-2.79-0.48-4.092-0.913-13.617 12.313-31.662 19.831-51.42 19.831h-153.596c-42.354 0-76.806-34.48-76.806-76.865v-365.101c0-42.373 34.452-76.856 76.806-76.856h153.596c23.424 0 44.424 10.569 58.524 27.175 49.137-7.179 80.988-22.893 111.77-38.14 39.564-19.597 80.475-39.863 152.39-39.863h459.55c64.899 0 117.677 52.834 117.677 117.773 0 19.188-4.557 37.659-13.323 54.362 28.887 22.047 46.149 56.295 46.149 93.471 0 19.188-4.56 37.671-13.326 54.362 28.887 22.062 46.161 56.307 46.161 93.474zM1013.713 280.516h-20.46c-10.593 0-19.194-8.599-19.194-19.212s8.601-19.21 19.194-19.21h20.46c10.605 0 19.209 8.596 19.209 19.21s-8.604 19.212-19.209 19.212zM1048.636 428.902h-20.46c-10.608 0-19.197-8.611-19.197-19.225s8.589-19.209 19.197-19.209h20.46c10.605 0 19.194 8.596 19.194 19.209s-8.589 19.225-19.194 19.225zM978.793 132.142h-20.463c-10.605 0-19.194-8.599-19.194-19.212s8.589-19.222 19.194-19.222h20.463c10.605 0 19.206 8.608 19.206 19.222s-8.601 19.212-19.206 19.212zM191.999 428.785c-21.177 0-38.403-17.243-38.403-38.434 0-21.194 17.226-38.434 38.403-38.434s38.403 17.24 38.403 38.434c0 21.191-17.226 38.434-38.403 38.434zM1117.342 280.516h-32.541c-10.608 0-19.209-8.599-19.209-19.212s8.601-19.21 19.209-19.21h28.698c7.335-12.256 11.238-26.061 11.238-40.488 0-29.072-15.738-55.473-41.178-69.464h-34.923c-10.605 0-19.197-8.599-19.197-19.212s8.592-19.222 19.197-19.222h32.355c7.137-12.115 10.923-25.719 10.923-39.935 0-43.745-35.556-79.342-79.278-79.342h-459.55c-62.94 0-96.504 16.621-135.362 35.879-29.661 14.682-62.964 31.126-111.737 39.851 0.786 4.399 1.206 8.914 1.206 13.523v290.637c0 10.614-8.589 19.222-19.194 19.222s-19.194-8.608-19.194-19.222v-290.637c0-21.182-17.229-38.422-38.403-38.422h-153.596c-21.177 0-38.403 17.24-38.403 38.422v365.101c0 21.191 17.226 38.431 38.403 38.431h153.596c21.174 0 38.403-17.24 38.403-38.431 0-10.617 8.589-19.213 19.194-19.213s19.194 8.596 19.194 19.213c0 7.458-1.077 14.658-3.069 21.485 107.459 14.67 198.761 60.832 264.68 134.064 65.754 73.031 101.952 170.46 101.952 274.322 0 34.693 28.206 62.91 62.859 62.91 34.665 0 62.871-28.217 62.871-62.91 0-94.411-17.919-184.871-50.448-254.701-4.476-9.617-0.318-21.050 9.291-25.545 3.129-1.453 6.459-1.982 9.669-1.723 0.48-0.033 0.96-0.069 1.44-0.069h344.671c43.722 0 79.278-35.597 79.278-79.342 0-28.334-14.943-54.137-39.258-68.386h-35.943c-10.605 0-19.194-8.599-19.194-19.212s8.589-19.209 19.194-19.209h30.81c7.56-12.385 11.565-26.388 11.565-41.025 0.012-28.712-15.339-54.806-40.218-68.927z" />
<glyph unicode="&#xe902;" glyph-name="survey" d="M158.132 960c-87.193 0-158.132-70.939-158.132-158.132s70.939-158.132 158.132-158.132c87.193 0 158.132 70.939 158.132 158.132s-70.939 158.132-158.132 158.132v0zM158.132 676.911c-68.899 0-124.957 56.047-124.957 124.957 0 68.899 56.058 124.957 124.957 124.957 68.91 0 124.957-56.058 124.957-124.957 0-68.91-56.047-124.957-124.957-124.957zM158.132 606.132c-87.193 0-158.132-70.939-158.132-158.132s70.939-158.132 158.132-158.132c87.193 0 158.132 70.939 158.132 158.132s-70.939 158.132-158.132 158.132zM158.132 323.043c-68.899 0-124.957 56.047-124.957 124.957 0 68.899 56.058 124.957 124.957 124.957 68.91 0 124.957-56.058 124.957-124.957 0-68.91-56.047-124.957-124.957-124.957zM158.132 252.264c-87.193 0-158.132-70.939-158.132-158.132s70.939-158.132 158.132-158.132c87.193 0 158.132 70.939 158.132 158.132s-70.939 158.132-158.132 158.132zM158.132-30.825c-68.899 0-124.957 56.047-124.957 124.957 0 68.899 56.058 124.957 124.957 124.957 68.91 0 124.957-56.058 124.957-124.957 0-68.91-56.047-124.957-124.957-124.957zM199.482 848.985l-59.038-59.052-23.662 23.662c-6.48 6.48-16.975 6.48-23.455 0s-6.48-16.988 0-23.455l35.39-35.39c3.237-3.24 7.484-4.86 11.727-4.86s8.487 1.62 11.727 4.86l70.779 70.776c6.477 6.469 6.477 16.977 0 23.458-6.48 6.477-16.988 6.477-23.469 0zM199.482 495.117l-59.038-59.052-23.662 23.662c-6.48 6.48-16.975 6.48-23.455 0s-6.48-16.988 0-23.455l35.39-35.39c3.237-3.24 7.484-4.86 11.727-4.86s8.487 1.62 11.727 4.86l70.779 70.776c6.477 6.469 6.477 16.977 0 23.458-6.48 6.477-16.988 6.477-23.469 0zM388.143 838.358h318.492c9.156 0 16.588 7.428 16.588 16.588 0 9.156-7.431 16.588-16.588 16.588h-318.492c-9.156 0-16.588-7.431-16.588-16.588 0-9.159 7.431-16.588 16.588-16.588zM388.143 732.203h619.269c9.17 0 16.588 7.417 16.588 16.588 0 9.156-7.417 16.588-16.588 16.588h-619.269c-9.156 0-16.588-7.431-16.588-16.588 0-9.17 7.431-16.588 16.588-16.588zM388.143 484.49h318.492c9.156 0 16.588 7.428 16.588 16.588 0 9.156-7.431 16.588-16.588 16.588h-318.492c-9.156 0-16.588-7.431-16.588-16.588 0-9.159 7.431-16.588 16.588-16.588zM1007.412 411.51h-619.269c-9.156 0-16.588-7.431-16.588-16.588 0-9.17 7.431-16.588 16.588-16.588h619.269c9.17 0 16.588 7.417 16.588 16.588 0 9.156-7.417 16.588-16.588 16.588zM388.143 130.622h318.492c9.156 0 16.588 7.428 16.588 16.588 0 9.156-7.431 16.588-16.588 16.588h-318.492c-9.156 0-16.588-7.431-16.588-16.588 0-9.159 7.431-16.588 16.588-16.588zM1007.412 57.642h-619.269c-9.156 0-16.588-7.431-16.588-16.588 0-9.17 7.431-16.588 16.588-16.588h619.269c9.17 0 16.588 7.417 16.588 16.588 0 9.156-7.417 16.588-16.588 16.588z" />
<glyph unicode="&#xe903;" d="M972.8 448c0-254.493-206.307-460.8-460.8-460.8s-460.8 206.307-460.8 460.8c0 254.493 206.307 460.8 460.8 460.8s460.8-206.307 460.8-460.8z" />
<glyph unicode="&#xe904;" d="M512-64c-281.6 0-512 230.4-512 512s230.4 512 512 512c281.6 0 512-230.4 512-512s-230.4-512-512-512zM512 857.6c-225.28 0-409.6-184.32-409.6-409.6s184.32-409.6 409.6-409.6 409.6 184.32 409.6 409.6-184.32 409.6-409.6 409.6z" />
<glyph unicode="&#xe905;" d="M972.8 448c0-254.493-206.307-460.8-460.8-460.8s-460.8 206.307-460.8 460.8c0 254.493 206.307 460.8 460.8 460.8s460.8-206.307 460.8-460.8z" />
<glyph unicode="&#xe906;" d="M512-64c-281.6 0-512 230.4-512 512s230.4 512 512 512c281.6 0 512-230.4 512-512s-230.4-512-512-512zM512 857.6c-225.28 0-409.6-184.32-409.6-409.6s184.32-409.6 409.6-409.6 409.6 184.32 409.6 409.6-184.32 409.6-409.6 409.6z" />
<glyph unicode="&#xe907;" d="M506.88 202.24l-240.64 168.96 61.44 87.040 148.48-107.52 194.56 332.8 87.040-51.2z" />
<glyph unicode="&#xe908;" glyph-name="add" horiz-adv-x="973" d="M409.6 12.8v363.52h-358.4v153.6h358.4v358.4h153.6v-358.4h358.4v-153.6h-358.4v-363.52h-153.6z" />
<glyph unicode="&#xe909;" glyph-name="info" horiz-adv-x="995" d="M517.216 960c-263.707 0-477.486-217.603-477.486-486.040 0-84.727 21.382-164.325 58.805-233.664l-95.304-240.093c-6.667-16.771-2.823-35.951 9.74-48.741 12.535-12.788 31.399-16.703 47.871-9.921l240.934 99.067c64.813-33.439 137.838-52.689 215.439-52.689 263.743 0 477.526 217.603 477.526 486.040s-213.781 486.040-477.526 486.040v0zM516.691 764.044c46.408 0 84.034-38.298 84.034-85.537s-37.626-85.535-84.034-85.535c-46.408 0-84.040 38.296-84.040 85.535s37.63 85.537 84.040 85.537v0zM601.555 223.508c0-21.899-17.439-39.647-38.951-39.647h-91.828c-21.514 0-38.949 17.748-38.949 39.647v326.795c24.232-16.686 53.471-26.438 84.866-26.438 31.393 0 60.63 9.753 84.866 26.438v-326.795h-0.004z" />
<glyph unicode="&#xe90a;" glyph-name="PPD-logo" horiz-adv-x="3413" d="M1009.247 958.104l-795.686 1.896c0 0-15.17-1.896-13.274-18.735 2.086-18.584 22.718-14.905 22.718-14.905s32.085 7.471 64.247-7.509c32.047-14.981 16.953-41.225 16.953-41.225l-304.204-920.879h351.573l113.285 333.217c43.501-9.557 196.798 1.403 238.175 5.575 56.699 5.613 100.314 18.204 166.343 39.215 52.907 16.877 139.871 59.809 175.673 121.78 18.887 32.54 125.307 325.367 126.673 394.923 1.858 102.893-162.475 106.648-162.475 106.648zM825.837 862.72c-5.006-29.886-137.975-439.903-153.031-458.638-15.17-18.811-23.438-30.379-75.624-39.367-43.463-7.396-71.794-13.084-111.426-5.537l177.531 527.701h139.909c0 0 26.434-1.745 22.642-24.159zM2033.706 954.345l-795.572 1.858c0 0-15.095-1.858-13.274-18.697 2.086-18.546 22.642-14.943 22.642-14.943s32.085 7.547 64.322-7.471c31.972-15.019 16.877-41.263 16.877-41.263l-304.090-920.879h351.346l113.55 333.141c43.349-9.368 196.608 1.669 238.061 5.689 56.699 5.575 100.162 18.242 166.191 39.253 53.020 16.877 139.947 59.847 175.938 121.78 18.811 32.692 125.193 325.329 126.521 394.847 1.934 103.045-162.513 106.686-162.513 106.686zM1850.334 858.962c-5.044-29.734-137.975-439.903-153.069-458.714-15.132-18.697-23.324-30.303-75.662-39.215-43.349-7.471-71.68-13.122-111.388-5.613l177.759 527.853h139.757c0 0 26.359-1.82 22.604-24.311zM3043.063 952.411l-795.572 1.934c0 0-15.17-1.934-13.312-18.773 2.124-18.47 22.756-14.867 22.756-14.867s32.047 7.509 64.209-7.509c32.161-14.981 16.991-41.15 16.991-41.15l-304.242-920.955h568.813c62.502 0 202.411 53.931 260.892 80.479 66.105 29.961 124.663 91.819 139.871 142.336 10.657 36.105 210.375 591.189 211.589 660.632 1.858 102.969-171.994 117.874-171.994 117.874zM2859.804 858.962c-5.12-29.734-241.854-774.903-257.1-793.676-15.057-18.735-49.076-33.716-75.511-39.329-43.16-9.216-71.87-13.122-111.426-5.613l281.524 862.929h139.795c0 0 26.51-1.82 22.718-24.311zM3267.777 831.367c0 37.471 28.407 65.612 64.929 65.612 36.143 0 64.436-28.141 64.436-65.612 0-37.964-28.293-66.029-64.436-66.029-36.523 0-64.929 28.065-64.929 66.029v0zM3332.707 752.177c43.501 0 80.631 33.375 80.631 79.189 0 45.435-37.129 78.81-80.631 78.81-43.918 0-81.010-33.375-81.010-78.81 0-45.815 37.092-79.189 81.010-79.189v0zM3315.754 825.109h16.043l24.348-39.557h15.663l-26.055 40.277c13.426 1.555 23.666 8.685 23.666 25.031 0 17.977-10.771 25.941-32.503 25.941h-35.006v-91.25h13.843v39.557zM3315.754 836.904v28.103h19.039c9.747 0 20.025-2.086 20.025-13.198 0-14.146-10.468-14.905-22.338-14.905h-16.725z" />
<glyph unicode="&#xe90b;" glyph-name="checked" d="M506.88 202.24l-240.64 168.96 61.44 87.040 148.48-107.52 194.56 332.8 87.040-51.2z" />
<glyph unicode="&#xe90c;" glyph-name="hamburger-straigth" horiz-adv-x="1365" d="M0 960h1365.333v-133.565h-1365.333v133.565zM0 69.565h1365.333v-133.565h-1365.333v133.565zM0 514.783h1365.333v-133.565h-1365.333v133.565z" />
<glyph unicode="&#xe90d;" glyph-name="cup" horiz-adv-x="827" d="M777.401 800.754h-107.269v58.026c20.552 6.942 35.39 26.383 35.39 49.243 0 28.661-23.314 51.977-51.977 51.977h-495.412c-28.661 0-51.977-23.317-51.977-51.977 0-22.86 14.851-42.301 35.39-49.243v-58.026h-107.269c-18.899 0-34.275-15.377-34.275-34.275v-70.779c0-106.705 86.814-193.522 193.522-193.522 0.216 0 0.431 0.033 0.658 0.033 37.668-50.302 92.83-86.772 156.385-100.358-9.018-11.738-14.384-26.413-14.384-42.32 0-23.165 11.371-43.717 28.81-56.395-6.953-8.833-11.122-19.977-11.122-32.072v-141.544c0-29.882-24.309-54.192-54.192-54.192h-70.765c-18.91 0-34.289-15.379-34.289-34.275v-70.779c0-18.899 15.379-34.275 34.289-34.275h353.868c18.899 0 34.275 15.377 34.275 34.275v70.779c0 18.896-15.377 34.275-34.275 34.275h-70.779c-29.88 0-54.178 24.309-54.178 54.192v141.544c0 12.095-4.169 23.239-11.136 32.072 17.453 12.678 28.824 33.23 28.824 56.395 0 15.907-5.377 30.582-14.384 42.32 63.541 13.585 118.714 50.056 156.382 100.358 0.216 0 0.434-0.033 0.661-0.033 106.705 0 193.522 86.817 193.522 193.522v70.779c0 18.899-15.379 34.275-34.289 34.275v0zM158.132 926.825h495.412c10.367 0 18.802-8.435 18.802-18.802s-8.435-18.802-18.802-18.802h-495.412c-10.367 0-18.802 8.435-18.802 18.802s8.435 18.802 18.802 18.802v0zM33.175 695.699v70.779c0 0.605 0.498 1.1 1.1 1.1h107.269v-107.255c0-44.59 11.114-86.631 30.693-123.511-78.382 10.442-139.062 77.699-139.062 158.887v0zM582.779 42.155c0.605 0 1.1-0.498 1.1-1.1v-70.779c0-0.605-0.495-1.1-1.1-1.1h-353.868c-0.617 0-1.114 0.495-1.114 1.1v70.779c0 0.603 0.498 1.1 1.114 1.1h353.868zM424.647 271.066v-141.544c0-20.466 7.083-39.288 18.907-54.192h-75.421c11.827 14.904 18.91 33.725 18.91 54.192v141.544c0 10.367 8.435 18.802 18.802 18.802s18.802-8.435 18.802-18.802v0zM442.335 359.533c0-20.121-16.372-36.49-36.49-36.49-20.121 0-36.49 16.369-36.49 36.49 0 20.118 16.369 36.49 36.49 36.49 20.118 0 36.49-16.372 36.49-36.49v0zM405.845 429.198c-127.442 0-231.126 103.683-231.126 231.126v195.722h462.237v-195.722c0-127.442-103.672-231.126-231.112-231.126v0zM778.515 695.699c0-81.188-60.683-148.445-139.073-158.887 19.579 36.88 30.69 78.921 30.69 123.511v107.255h107.269c0.617 0 1.114-0.495 1.114-1.1v-70.779z" />
<glyph unicode="&#xe90e;" glyph-name="search" d="M353.843 958.344c194.201 0 352.195-157.994 352.195-352.195 0-79.902-26.77-153.658-71.785-212.818l71.343-71.354c0.453-0.453 0.872-0.927 1.261-1.41 5.843 1.206 11.838 1.855 17.941 1.855 23.298 0 45.208-9.081 61.68-25.553l211.979-211.979c16.475-16.475 25.542-38.371 25.542-61.672 0-23.298-9.067-45.197-25.542-61.661-16.486-16.483-38.382-25.55-61.683-25.55-23.287 0-45.197 9.067-61.669 25.55l-211.979 211.968c-16.475 16.475-25.542 38.374-25.542 61.672 0 6.103 0.635 12.109 1.855 17.952-0.497 0.389-0.972 0.798-1.424 1.25l-71.341 71.343c-59.16-45.015-132.93-71.774-212.832-71.774-194.198 0-352.193 157.983-352.193 352.181 0 194.201 157.994 352.195 352.193 352.195v0zM898.523-15.025c10.221-10.221 23.806-15.849 38.252-15.849 14.449 0 28.034 5.628 38.266 15.849 10.21 10.21 15.837 23.795 15.837 38.241 0 14.457-5.628 28.032-15.849 38.255l-191.43 191.427-76.505-76.496 191.427-191.427zM683.784 199.941l76.248 76.237c-10.102 8.689-22.652 13.088-35.233 13.088-13.856 0-27.709-5.283-38.255-15.829-10.221-10.21-15.838-23.795-15.838-38.241 0-13.088 4.626-25.456 13.077-35.255v0zM653.638 285.623c2.826 3.955 5.973 7.728 9.489 11.234 3.514 3.514 7.289 6.674 11.256 9.498l-61.476 61.479c-6.621-7.204-13.544-14.126-20.745-20.745l61.476-61.465zM353.843 287.088c175.935 0 319.074 143.125 319.074 319.060 0 175.938-143.139 319.074-319.074 319.074s-319.071-143.136-319.071-319.074c0-175.935 143.136-319.060 319.071-319.060zM353.843 887.68c155.234 0 281.531-126.283 281.531-281.531 0-155.234-126.297-281.531-281.531-281.531s-281.531 126.297-281.531 281.531c0 155.248 126.297 281.531 281.531 281.531zM353.843 357.739c136.97 0 248.41 111.439 248.41 248.41 0 136.981-111.439 248.41-248.41 248.41s-248.41-111.428-248.41-248.41c0-136.97 111.439-248.41 248.41-248.41zM238.846 782.936c7.665 4.993 17.919 2.837 22.923-4.83 4.99-7.665 2.824-17.919-4.83-22.912-50.62-32.992-80.841-88.71-80.841-149.046 0-41.217 14.424-81.39 40.626-113.109 5.821-7.052 4.83-17.488-2.222-23.309-3.094-2.556-6.826-3.795-10.544-3.795-4.767 0-9.5 2.048-12.777 6.014-31.084 37.64-48.205 85.307-48.205 134.199 0 71.581 35.837 137.66 95.87 176.788zM315.524 813.546c12.561 2.307 25.445 3.483 38.319 3.483 9.144 0 16.561-7.419 16.561-16.561 0-9.144-7.416-16.561-16.561-16.561-10.867 0-21.747-0.994-32.335-2.934-1.013-0.182-2.015-0.279-3.017-0.279-7.828 0-14.794 5.595-16.271 13.574-1.651 8.99 4.303 17.626 13.304 19.277z" />
<glyph unicode="&#xe90f;" glyph-name="cross" d="M686.036 442.583l309.136 309.136-168.619 168.619-309.136-309.136-309.135 309.135-168.619-168.619 309.135-309.135-309.136-309.136 168.619-168.619 309.136 309.136 309.135-309.135 168.619 168.619-309.135 309.135z" />
<glyph unicode="&#xe910;" glyph-name="crossed" d="M604.16 427.52l143.36 143.36c10.24 10.24 10.24 30.72 0 46.080l-30.72 30.72c-10.24 10.24-30.72 10.24-46.080 0l-143.36-143.36-143.36 143.36c-10.24 10.24-30.72 10.24-46.080 0l-30.72-30.72c-10.24-10.24-10.24-30.72 0-46.080l143.36-143.36-143.36-143.36c-10.24-10.24-10.24-30.72 0-46.080l30.72-30.72c10.24-10.24 30.72-10.24 46.080 0l143.36 143.36 143.36-143.36c10.24-10.24 30.72-10.24 46.080 0l30.72 30.72c10.24 10.24 10.24 30.72 0 46.080l-143.36 143.36z" />
<glyph unicode="&#xe911;" glyph-name="box-check" horiz-adv-x="1434" d="M1380.398 719.097l-750.198-741.849c-55.565-54.955-145.696-54.955-201.288 0l-387.231 382.976c-55.565 54.981-55.565 144.121 0 199.076 55.592 54.981 145.723 54.981 201.288 0l286.64-283.49 649.5 642.363c55.592 54.981 145.696 54.981 201.288 0 55.592-54.955 55.592-144.095 0-199.076v0z" />
<glyph unicode="&#xe912;" glyph-name="required-update" d="M41.354 444.062c0 126.031 49.231 244.185 137.846 334.769 88.615 88.615 206.769 137.846 334.769 137.846s248.123-51.2 336.738-141.785h-59.077c-9.846 0-15.754-7.877-15.754-15.754 0-9.846 7.877-15.754 15.754-15.754h104.369c9.846 0 15.754 7.877 15.754 15.754v104.369c0 9.846-7.877 15.754-15.754 15.754s-15.754-7.877-15.754-15.754v-72.862c-94.523 100.431-228.431 159.508-368.246 159.508-133.908 0-261.908-53.169-356.431-147.692s-147.692-222.523-147.692-356.431c0-88.615 23.631-175.262 66.954-252.062 3.938-5.908 7.877-7.877 13.785-7.877 1.969 0 5.908 0 7.877 1.969 7.877 3.938 9.846 13.785 5.908 21.662-39.385 70.892-61.046 151.631-61.046 234.338zM949.169 698.092c-3.938 7.877-13.785 9.846-21.662 5.908s-9.846-13.785-5.908-21.662c41.354-70.892 63.015-153.6 63.015-236.308 0-126.031-49.231-244.185-137.846-334.769-88.615-88.615-206.769-137.846-334.769-137.846s-248.123 51.2-336.738 141.785h57.108c9.846 0 15.754 7.877 15.754 15.754 0 9.846-7.877 15.754-15.754 15.754h-104.369c-9.846 0-15.754-7.877-15.754-15.754v-104.369c0-9.846 7.877-15.754 15.754-15.754 9.846 0 15.754 7.877 15.754 15.754v72.862c94.523-100.431 228.431-159.508 368.246-159.508 133.908 0 261.908 53.169 356.431 147.692s147.692 222.523 147.692 356.431c1.969 88.615-21.662 177.231-66.954 254.031zM512 810.338c-200.862 0-364.308-163.446-364.308-364.308v0c0-200.862 163.446-364.308 364.308-364.308s364.308 163.446 364.308 364.308c1.969 200.862-161.477 364.308-364.308 364.308zM529.723 113.231v35.446c0 9.846-7.877 15.754-15.754 15.754-9.846 0-15.754-7.877-15.754-15.754v-35.446c-171.323 7.877-307.2 145.723-315.077 315.077h35.446c9.846 0 15.754 7.877 15.754 15.754 0 9.846-7.877 15.754-15.754 15.754h-35.446c7.877 171.323 145.723 307.2 315.077 315.077v-35.446c0-9.846 7.877-15.754 15.754-15.754 9.846 0 15.754 7.877 15.754 15.754v35.446c171.323-7.877 307.2-145.723 315.077-315.077h-35.446c-9.846 0-15.754-7.877-15.754-15.754 0-9.846 7.877-15.754 15.754-15.754h35.446c-7.877-169.354-145.723-307.2-315.077-315.077zM722.708 461.785h-141.785c-1.969 5.908-3.938 13.785-7.877 19.692l153.6 153.6c5.908 5.908 5.908 17.723 0 23.631s-17.723 5.908-23.631 0l-153.6-153.6c-9.846 5.908-21.662 9.846-35.446 9.846-31.508 0-59.077-21.662-66.954-53.169h-37.415c-9.846 0-15.754-7.877-15.754-15.754 0-9.846 7.877-15.754 15.754-15.754h37.415c1.969-5.908 3.938-13.785 7.877-19.692l-39.385-39.385c-5.908-5.908-5.908-17.723 0-23.631 3.938-3.938 7.877-3.938 11.815-3.938s7.877 1.969 11.815 3.938l39.385 39.385c9.846-5.908 21.662-9.846 35.446-9.846 31.508 0 59.077 21.662 66.954 53.169h141.785c9.846 0 15.754 7.877 15.754 15.754s-7.877 15.754-15.754 15.754zM512 408.615c-19.692 0-35.446 15.754-35.446 35.446s15.754 35.446 35.446 35.446c19.692 0 35.446-15.754 35.446-35.446 1.969-19.692-15.754-35.446-35.446-35.446z" />
<glyph unicode="&#xe913;" glyph-name="approved-doc" d="M825.108 373.169v336.738l-250.092 250.092h-551.385v-1024h750.277c122.092 0 222.523 100.431 222.523 222.523 0 104.369-72.862 191.015-171.323 214.646v0zM586.831 902.892l181.169-181.169h-181.169v181.169zM657.723-28.554h-596.677v955.077h494.277v-238.277h238.277v-307.2c-5.908 0-9.846 0-17.723 0-122.092 0-222.523-100.431-222.523-222.523 0-5.908 0-11.815 0-19.692 0-1.969 0-1.969 0-3.938 0-5.908 1.969-11.815 1.969-19.692v-1.969c1.969-5.908 1.969-9.846 3.938-17.723 0-1.969 0-1.969 1.969-3.938 1.969-5.908 3.938-11.815 5.908-17.723 0 0 0-1.969 1.969-3.938 1.969-3.938 3.938-9.846 5.908-15.754 0-1.969 1.969-1.969 1.969-3.938 1.969-5.908 5.908-9.846 7.877-15.754 0-1.969 1.969-1.969 1.969-3.938 1.969-3.938 5.908-7.877 9.846-11.815l1.969-1.969c3.938-3.938 7.877-7.877 11.815-11.815 1.969-1.969 1.969-1.969 3.938-1.969 3.938-3.938 7.877-7.877 11.815-11.815 0 0 0 0 1.969 0 3.938-3.938 9.846-7.877 15.754-9.846 1.969 0 1.969-1.969 3.938-1.969 3.938-5.908 7.877-5.908 9.846-7.877v0zM773.908-28.554c-102.4 0-187.077 82.708-187.077 187.077s82.708 187.077 187.077 187.077c3.938 0 9.846 0 15.754 0s9.846-1.969 15.754-1.969l7.877-1.969c84.677-17.723 149.662-94.523 149.662-183.138-1.969-102.4-86.646-187.077-189.046-187.077zM862.523 255.015l-96.492-135.877-68.923 55.138c-5.908 5.908-17.723 3.938-23.631-1.969s-3.938-17.723 1.969-23.631l80.738-66.954c1.969-1.969 5.908-3.938 9.846-3.938h1.969c3.938 0 7.877 3.938 11.815 5.908l106.338 151.631c5.908 7.877 3.938 19.692-3.938 23.631-3.938 3.938-13.785 1.969-19.692-3.938zM210.708 550.4h427.323c7.877 0 17.723 7.877 17.723 17.723 0 7.877-7.877 17.723-17.723 17.723h-427.323c-7.877 0-17.723-7.877-17.723-17.723 1.969-9.846 9.846-17.723 17.723-17.723zM210.708 686.277h171.323c7.877 0 17.723 7.877 17.723 17.723s-7.877 17.723-17.723 17.723h-171.323c-7.877 0-17.723-7.877-17.723-17.723s9.846-17.723 17.723-17.723zM210.708 414.523h427.323c7.877 0 17.723 7.877 17.723 17.723s-7.877 17.723-17.723 17.723h-427.323c-7.877 0-17.723-7.877-17.723-17.723s9.846-17.723 17.723-17.723zM502.154 312.123h-289.477c-7.877 0-17.723-7.877-17.723-17.723s7.877-17.723 17.723-17.723h289.477c7.877 0 17.723 7.877 17.723 17.723-1.969 7.877-9.846 17.723-17.723 17.723zM450.954 174.277h-238.277c-7.877 0-17.723-7.877-17.723-17.723s7.877-17.723 17.723-17.723h238.277c7.877 0 17.723 7.877 17.723 17.723-1.969 11.815-9.846 17.723-17.723 17.723z" />
<glyph unicode="&#xe914;" glyph-name="exit-large" d="M0 857.6l102.4 102.4 398.222-403.911 398.222 403.911 102.4-102.4-398.222-398.222 392.533-398.222-102.4-102.4-392.533 398.222-392.533-398.222-102.4 102.4 392.533 398.222z" />
<glyph unicode="&#xe915;" glyph-name="add-team" horiz-adv-x="1057" d="M942.52 363.033c9.269 37.376 14.266 75.586 14.266 113.881 0 259.051-210.729 469.876-469.852 469.876s-469.852-210.825-469.852-469.876c0-136.819 58.817-260.226 152.51-346.149l-0.427-0.427 15.185-12.836c1.004-0.748 2.008-1.431 3.011-2.264 8.158-6.749 16.594-13.178 25.18-19.35 2.755-2.008 5.425-3.994 8.18-5.831 9.183-6.343 18.516-12.345 28.127-18.026 2.072-1.175 4.165-2.328 6.258-3.588 10.508-5.916 21.186-11.597 32.185-16.766 0.769-0.342 1.602-0.662 2.349-1.089 35.709-16.595 73.831-28.791 113.619-35.967 1.089-0.15 2.093-0.32 3.161-0.577 12.366-2.093 24.881-3.844 37.545-4.912 1.58-0.171 3.097-0.256 4.677-0.427 12.601-1.004 25.372-1.666 38.293-1.666 55.72 0 110.287 9.846 162.355 29.111 40.792-49.059 102.193-80.327 170.855-80.327 122.461 0 222.069 99.614 222.069 222.080 0 77.252-39.702 145.341-99.694 185.131zM51.296 476.914c0 240.277 195.373 435.66 435.638 435.66s435.638-195.383 435.638-435.66c0-32.528-3.588-64.992-10.828-96.773-0.342 0.085-0.683 0.171-0.918 0.32-6.428 2.926-13.028 5.425-19.777 7.774-0.577 0.15-1.175 0.406-1.751 0.577-7.005 2.328-14.181 4.336-21.442 5.916-0.342 0.085-0.747 0.171-1.089 0.256-7.091 1.58-14.352 2.755-21.677 3.588-0.513 0-1.004 0.171-1.516 0.171-7.753 0.833-15.505 1.239-23.429 1.239-101.21 0-186.638-68.068-213.334-160.762-7.496 7.005-11.917 16.851-11.917 27.53v50.554c3.332 4.101 6.92 8.842 10.508 13.947 18.773 26.441 33.787 55.808 44.721 87.504 21.592 10.273 35.623 31.887 35.623 56.236v60.571c0 14.78-5.425 29.111-15.099 40.473v79.751c0.833 8.842 3.994 58.905-32.206 100.19-31.459 35.881-82.438 54.164-151.506 54.164s-120.047-18.282-151.506-54.164c-36.2-41.285-33.039-91.348-32.206-100.19v-79.751c-9.675-11.277-15.099-25.694-15.099-40.473v-60.571c0-18.859 8.436-36.373 22.873-48.226 13.839-54.228 42.287-95.278 52.794-109.118v-49.465c0-13.947-7.582-26.783-19.841-33.468l-135.082-73.664c-4.335-2.413-8.585-5.083-12.836-8.18-88.759 79.836-144.736 195.468-144.736 324.043zM454.557 42.578c-1.837 0.085-3.737 0.256-5.574 0.427-10.849 0.918-21.613 2.243-32.377 3.994-0.406 0-0.833 0.171-1.26 0.171-22.681 3.844-44.956 9.419-66.74 16.681-0.577 0.171-1.153 0.427-1.751 0.598-21.101 7.155-41.625 16.018-61.487 26.356-1.153 0.662-2.328 1.175-3.417 1.751-8.842 4.763-17.427 9.846-25.863 15.1-2.499 1.58-4.912 3.076-7.325 4.677-7.774 5.083-15.441 10.423-22.959 16.018-0.747 0.577-1.495 1.153-2.242 1.751 0.577 0.32 1.089 0.662 1.666 0.918l135.061 73.749c23.279 12.601 37.716 36.949 37.716 63.412v61.554l-4.015 4.763c-0.32 0.427-37.204 44.98-51.214 106.213l-1.58 6.749-5.852 3.759c-8.158 5.339-13.092 14.182-13.092 23.771v60.571c0 8.009 3.332 15.356 9.504 20.952l5.681 5.083v95.193l-0.171 2.157c-0.085 0.427-5.083 41.563 23.856 74.518 24.71 28.193 66.997 42.46 125.814 42.46 58.475 0 100.783-14.182 125.472-42.139 28.939-32.614 24.197-74.497 24.197-74.838l-0.171-97.435 5.681-5.083c6.087-5.51 9.504-12.943 9.504-20.867v-60.571c0-12.43-8.18-23.195-20.182-26.954l-8.521-2.584-2.755-8.5c-10.080-31.289-24.432-60.229-42.628-85.945-4.421-6.322-8.756-11.918-12.601-16.253l-4.25-4.763v-63.241c0-27.103 14.843-51.558 38.806-63.989-0.918-8.18-1.516-16.424-1.516-24.861 0-4.998 0.171-9.931 0.513-14.929 0.149-1.751 0.32-3.503 0.491-5.254 0.171-1.602 0.342-3.268 0.513-4.848 0.15-1.58 0.235-3.161 0.491-4.677 0.406-2.905 0.918-5.745 1.495-8.671 0.342-1.922 0.598-3.909 0.918-5.831l0.085-0.256c0.085-0.491 0.256-1.004 0.342-1.495 0.577-2.52 1.153-4.934 1.837-7.433 0.406-1.751 0.747-3.417 1.153-5.169 0.427-1.495 1.004-2.926 1.431-4.421 0.577-2.008 1.175-3.93 1.837-5.938 0.406-1.153 0.747-2.413 1.153-3.652 1.175-3.439 2.606-6.856 3.93-10.188 0-0.085 0-0.085 0.085-0.171 1.004-2.499 2.093-5.083 3.246-7.582 0.833-1.837 1.666-3.674 2.584-5.51 0.598-1.26 1.089-2.499 1.666-3.674 0.427-0.748 0.854-1.495 1.26-2.328 1.431-2.755 3.011-5.51 4.506-8.18 0.491-0.833 0.918-1.666 1.346-2.413-45.896-16.018-93.522-24.028-141.917-24.028-10.849 0-21.613 0.491-32.377 1.324zM922.573 195.010h-85.428v85.432c0 9.419-7.582 17.108-17 17.108-9.44 0-17.107-7.689-17.107-17.108v-85.432h-85.428c-9.44 0-17.107-7.689-17.107-17.108s7.667-17.108 17.107-17.108h85.428v-85.432c0-9.419 7.667-17.108 17.107-17.108 9.418 0 17 7.689 17 17.108v85.432h85.428c9.44 0 17.107 7.689 17.107 17.108s-7.667 17.108-17.107 17.108zM820.145-10.069c-62.576 0-117.976 30.884-152.168 78.021-1.431 1.901-2.67 3.909-4.015 5.916-0.918 1.324-1.922 2.67-2.755 4.079-0.747 1.175-1.41 2.349-2.157 3.588-0.769 1.26-1.431 2.499-2.178 3.844-1.175 2.093-2.499 4.079-3.588 6.172-0.747 1.58-1.495 3.161-2.242 4.763-0.256 0.406-0.427 0.918-0.598 1.324-1.324 2.67-2.67 5.339-3.823 8.095-0.598 1.431-1.004 2.926-1.602 4.336-1.324 3.417-2.67 6.856-3.823 10.359-0.513 1.58-0.918 3.246-1.431 4.912-0.085 0.513-0.235 1.004-0.406 1.495-0.918 3.439-1.837 6.856-2.67 10.273-0.171 1.089-0.427 2.157-0.598 3.246-0.235 1.089-0.406 2.093-0.662 3.182-0.662 3.738-1.239 7.582-1.751 11.427 0 0.406-0.085 0.918-0.171 1.324-0.085 1.431-0.32 2.841-0.491 4.272-0.513 5.745-0.833 11.512-0.833 17.343 0 5.425 0.32 10.679 0.747 15.933 0.491 5.083 1.175 10.273 2.093 15.677l1.324 7.433c18.025 84.941 93.522 148.929 183.798 148.929 7.582 0 15.163-0.598 22.681-1.516 1.751-0.235 3.417-0.577 5.168-0.833 6.172-0.918 12.43-2.157 18.516-3.738 1.26-0.342 2.606-0.598 3.844-1.004 15.099-4.186 29.622-10.273 43.376-18.112 56.233-32.528 94.269-93.185 94.269-162.769 0-103.629-84.253-187.972-187.855-187.972z" />
<glyph unicode="&#xe916;" glyph-name="folder" horiz-adv-x="1147" d="M956.773 749.987h-224.114l-57.997 63.799c-17.203 18.94-41.644 29.806-67.024 29.806h-418.944c-33.347 0-60.482-27.555-60.482-61.433v-655.27c0-33.867 27.135-61.433 60.482-61.433h768.079c33.35 0 60.482 27.552 60.482 61.433v561.649c0 33.88-27.132 61.438-60.482 61.438v0zM653.499 793.946l39.956-43.967h-52.977l-57.986 63.799c-0.17 0.192-0.363 0.365-0.523 0.559h25.67c17.368 0 34.080-7.424 45.861-20.391v0zM515.468 814.337c17.365 0 34.080-7.424 45.858-20.391l39.959-43.967h-60.067l-57.997 63.799c-0.17 0.192-0.347 0.365-0.523 0.559h32.77zM188.694 814.337h227.517c17.368 0 34.083-7.424 45.861-20.391l39.956-43.967h-313.334c-11.604 0-22.464-3.351-31.679-9.132v41.307c0 17.737 14.219 32.172 31.679 32.172v0zM988.447 126.895c0-17.737-14.216-32.172-31.679-32.172h-768.079c-17.47 0-31.679 14.435-31.679 32.172v561.649c0 17.753 14.219 32.188 31.679 32.188h768.079c17.473 0 31.679-14.435 31.679-32.188v-561.649zM895.326 656.372h-215.067c-16.411 0-29.758-13.557-29.758-30.221v-156.014c0-16.673 13.348-30.233 29.758-30.233h215.067c16.411 0 29.758 13.56 29.758 30.233v156.014c0 16.66-13.348 30.221-29.758 30.221v0zM896.291 470.131c0-0.546-0.43-0.985-0.95-0.985h-215.067c-0.535 0-0.95 0.439-0.95 0.985v156.014c0 0.534 0.415 0.97 0.95 0.97h215.067c0.52 0 0.95-0.436 0.95-0.97v-156.014zM849.233 593.969h-122.895c-7.95 0-14.404-6.549-14.404-14.624 0-8.090 6.447-14.624 14.404-14.624h122.895c7.958 0 14.404 6.54 14.404 14.624 0 8.074-6.443 14.624-14.404 14.624v0zM849.233 531.562h-122.895c-7.95 0-14.404-6.546-14.404-14.624 0-8.074 6.447-14.624 14.404-14.624h122.895c7.958 0 14.404 6.549 14.404 14.624 0 8.078-6.443 14.624-14.404 14.624v0z" />
<glyph unicode="&#xe917;" glyph-name="alarm-clock" horiz-adv-x="796" d="M123.253 325.236c0-145.108 123.311-263.162 274.868-263.162 151.569 0 274.877 118.055 274.877 263.162 0 145.105-123.308 263.16-274.877 263.16-151.557 0-274.868-118.055-274.868-263.16v0zM637.88 341.73c-0.181 0-0.351 0.022-0.529 0.022h-36.806c-9.523 0-17.252-7.399-17.252-16.516 0-9.12 7.729-16.516 17.252-16.516h36.806c0.178 0 0.348 0.019 0.529 0.019-8.459-113.763-103.667-204.924-222.496-213.031v35.741c0 9.12-7.729 16.516-17.252 16.516-9.537 0-17.252-7.396-17.252-16.516v-35.741c-118.828 8.107-214.028 99.256-222.496 213.011h37.321c9.526 0 17.252 7.396 17.252 16.516 0 9.117-7.726 16.516-17.252 16.516h-37.321c8.456 113.752 103.667 204.902 222.484 213.009v-35.741c0-9.117 7.726-16.516 17.252-16.516 9.534 0 17.252 7.399 17.252 16.516v35.741c118.828-8.107 214.048-99.267 222.507-213.031v0zM422.133 371.58c-7.231 3.449-15.385 5.406-24.011 5.406-23.767 0-43.994-14.774-51.217-35.234h-22.384c-9.523 0-17.252-7.399-17.252-16.516 0-9.12 7.729-16.516 17.252-16.516h22.384c0.788-2.227 1.731-4.388 2.809-6.474l-30.156-28.87c-6.74-6.452-6.74-16.904 0-23.357 3.367-3.223 7.783-4.836 12.197-4.836s8.827 1.613 12.197 4.836l30.156 28.873c7.246-3.452 15.4-5.409 24.014-5.409 23.775 0 44.006 14.785 51.214 35.237h77.6c9.523 0 17.252 7.396 17.252 16.516 0 9.128-7.729 16.516-17.252 16.516h-77.6c-0.785 2.224-1.717 4.396-2.795 6.472l92.592 88.656c6.74 6.452 6.74 16.904 0 23.357-6.728 6.45-17.657 6.45-24.397 0l-92.603-88.656zM398.122 306.515c-10.771 0-19.543 8.398-19.543 18.721s8.772 18.718 19.543 18.718c10.782 0 19.555-8.396 19.555-18.718s-8.761-18.721-19.555-18.721v0zM793.747 671.761c-5.009 17.892-16.993 32.851-33.75 42.119l-80.685 44.591 9.782 16.216c4.761 7.892 1.932 18-6.311 22.558-8.255 4.561-18.813 1.85-23.574-6.042l-9.773-16.216-50.047 27.656v33.495c0 67.389-57.258 122.217-127.658 122.217h-147.21c-70.398 0-127.667-54.828-127.667-122.217v-33.495l-50.038-27.656-9.77 16.216c-4.773 7.892-15.319 10.603-23.574 6.042-8.243-4.558-11.075-14.666-6.311-22.558l9.782-16.216-80.688-44.591c-16.757-9.268-28.741-24.226-33.75-42.119-5.009-17.903-2.438-36.591 7.234-52.634l27.605-45.774c4.764-7.892 12.444-13.549 21.645-15.902 3.077-0.785 6.188-1.184 9.287-1.184 6.179 0 12.277 1.561 17.769 4.591l112.549 62.216 10.627-17.614c-95.95-59.494-159.576-162.871-159.576-280.224 0-117.884 64.199-221.679 160.867-281.044l-48.183-80.72c-4.73-7.925-1.855-18.011 6.423-22.539 2.697-1.473 5.638-2.172 8.537-2.172 5.986 0 11.817 2.989 14.994 8.324l48.16 80.687c47.376-23.117 100.97-36.162 157.679-36.162 55.495 0 107.989 12.505 154.611 34.689l51.542-79.721c3.269-5.054 8.908-7.829 14.69-7.829 3.091 0 6.234 0.807 9.066 2.475 8.097 4.806 10.59 14.988 5.581 22.74l-50.765 78.496c98.288 59.064 163.766 163.733 163.766 282.775 0 117.353-63.626 220.73-159.576 280.224l10.624 17.614 112.552-62.216c5.492-3.031 11.59-4.591 17.769-4.591 3.088 0 6.211 0.399 9.276 1.184 9.198 2.354 16.892 8.010 21.654 15.902l27.608 45.774c9.669 16.043 12.243 34.731 7.231 52.634v0zM68.793 589.461c-0.101-0.055-0.405-0.226-0.865-0.107s-0.641 0.418-0.707 0.515l-27.597 45.763c-5.075 8.409-6.423 18.206-3.795 27.582s8.908 17.204 17.689 22.063l191.239 105.7c5.84 3.237 12.332 4.881 18.913 4.881 3.292 0 6.616-0.407 9.885-1.247 9.793-2.516 17.97-8.525 23.045-16.935l27.597-45.763c0.325-0.529 0.135-1.206-0.417-1.506l-254.986-140.946zM712.108 325.236c0-165.753-140.853-300.594-313.986-300.594-173.122 0-313.975 134.84-313.975 300.594 0 165.75 140.853 300.591 313.975 300.591 173.133 0 313.986-134.84 313.986-300.591v0zM557.192 622.030c-42.893 21.152-90.941 34.031-141.807 36.418v90.701h1.144c9.526 0 17.252 7.396 17.252 16.516 0 9.117-7.726 16.516-17.252 16.516h-36.806c-9.523 0-17.252-7.399-17.252-16.516 0-9.12 7.729-16.516 17.252-16.516h1.159v-90.701c-50.88-2.387-98.929-15.266-141.819-36.418l-10.581 17.559 112.549 62.202c17.016 9.409 22.878 30.324 13.042 46.636l-27.597 45.763c-9.681 16.054-25.305 27.527-43.994 32.322-17.275 4.429-35.268 2.656-51.113-4.958v14.581c0 49.171 41.78 89.184 93.152 89.184h147.21c51.375 0 93.167-40.013 93.167-89.184v-14.581c-15.86 7.614-33.842 9.387-51.116 4.958-18.698-4.795-34.322-16.279-44.003-32.322l-27.597-45.774c-9.828-16.301-3.976-37.216 13.051-46.625l112.552-62.214-10.592-17.548zM756.628 635.642l-27.594-45.774c-0.069-0.096-0.247-0.396-0.707-0.515-0.463-0.129-0.765 0.052-0.865 0.118l-254.989 140.935c-0.549 0.3-0.73 0.977-0.414 1.506l27.594 45.763c5.078 8.409 13.266 14.419 23.048 16.935 3.269 0.84 6.593 1.247 9.882 1.247 6.584 0 13.074-1.643 18.916-4.881l191.236-105.7c8.784-4.858 15.063-12.687 17.691-22.063s1.279-19.172-3.798-27.571v0z" />
<glyph unicode="&#xe918;" glyph-name="bell" d="M98.418 781.645c21.94-21.948 57.672-21.948 79.821 0 21.94 21.948 21.94 57.692 0 79.849-21.94 21.948-57.672 21.948-79.821 0-21.94-22.157-21.94-57.901 0-79.849v0zM182.418 497.155c29.672-75.042 92.567-144.022 150.030-201.505 65.821-65.844 88.597-151.338 95.075-218.018l454.687 454.849c-66.657 6.48-152.119 29.264-217.94 95.109-57.463 57.483-126.418 120.401-201.433 150.084-85.045 33.654-157.134 16.722-227.134-53.303s-86.925-142.14-53.284-227.216v0zM786.090 173.577c44.716 44.732 51.194 113.712 18.806 165.134l-184.090-184.155c51.821-32.191 120.567-25.92 165.284 19.022v0zM40.537 919.396c54.119 54.139 141.672 54.139 195.582 0 19.224-19.231 31.552-42.851 37.194-67.517 20.896 9.824 42.418 16.722 64.358 20.694 49.731 8.988 101.97 2.717 155.254-18.186 89.015-35.117 165.91-104.933 229.433-168.478 94.030-94.063 252.418-70.861 253.881-70.443 17.552 2.926 35.104-6.062 43.254-21.948s5.015-35.326-7.522-47.868l-147.313-147.366c63.94-84.657 57.463-205.895-19.851-283.027-77.105-77.132-198.299-83.821-282.925-19.858l-147.313-147.366c-12.537-12.542-31.97-15.677-47.851-7.525s-24.866 25.502-21.94 43.269c0 0.418 6.060 40.552 0.209 92.182-7.731 68.144-31.552 122.701-70.627 161.789-63.522 63.545-133.313 140.468-168.418 229.515-21.104 53.303-27.164 105.56-18.179 155.309 3.97 21.948 10.866 43.478 20.687 64.381-24.866 5.435-48.269 17.977-67.493 37.207-54.537 53.512-54.537 141.095-0.418 195.234v0 0z" />
<glyph unicode="&#xe919;" glyph-name="lab" horiz-adv-x="826" d="M820.957 282.421l-49.907 49.96c-6.464 6.469-16.946 6.469-23.411 0l-120.511-120.605c-6.464-6.469-6.464-16.96 0-23.429l18.433-18.433-30.917-30.941c-6.842-6.848-15.923-10.631-25.584-10.662l-73.814 1.421v62.402l256.859 257.069c6.461 6.469 6.461 16.949 0 23.415l-49.91 49.96c-6.464 6.458-16.946 6.458-23.397 0l-243.567-243.755c-8.541 2.812-17.666 4.355-27.136 4.355-22.147 0-42.389-8.335-57.783-22.016-76.086 24.905-128.666 96.782-128.666 177.142 0 22.239 3.963 43.996 11.698 64.761 14.241 2.683 27.481 8.224 39.061 16.063l52.13-51.544c0.085-0.096 0.193-0.16 0.279-0.259 0.259-0.235 0.518-0.461 0.786-0.69 0.163-0.138 0.334-0.268 0.507-0.409 0.248-0.182 0.507-0.378 0.764-0.549 0.215-0.152 0.433-0.281 0.648-0.422 0.226-0.138 0.463-0.278 0.7-0.408 0.268-0.152 0.538-0.281 0.816-0.409 0.207-0.099 0.411-0.196 0.615-0.292 0.312-0.13 0.637-0.248 0.96-0.367 0.13-0.041 0.248-0.107 0.375-0.149l75.957-24.991 34.646-34.673c6.668-6.674 15.427-10.005 24.183-10.005 8.759 0 17.517 3.331 24.185 10.005l45.632 45.679c13.336 13.336 13.336 35.048 0 48.395l-34.568 34.598-24.13 76.747c-0.066 0.204-0.152 0.411-0.226 0.616-0.108 0.29-0.207 0.571-0.325 0.85-0.127 0.304-0.268 0.593-0.419 0.886-0.085 0.182-0.171 0.386-0.279 0.571-0.185 0.334-0.389 0.657-0.593 0.98-0.077 0.129-0.152 0.259-0.237 0.389-0.237 0.345-0.485 0.679-0.745 1.002-0.074 0.096-0.149 0.204-0.226 0.292-0.268 0.334-0.56 0.646-0.86 0.947-0.066 0.077-0.13 0.152-0.204 0.226l-0.196 0.196-204.785 203.963c-9.79 9.801-22.815 15.191-36.67 15.191-13.496 0-26.199-5.141-35.903-14.478l-68.373 68.426c2.435 6.025 3.728 12.527 3.728 19.234 0 13.7-5.333 26.594-15.019 36.287-9.682 9.704-22.556 15.039-36.259 15.039s-26.576-5.335-36.262-15.028l-48.023-48.061c-9.682-9.693-15.016-22.587-15.016-36.29 0-13.711 5.333-26.594 15.027-36.287 9.997-10.004 23.118-15.008 36.262-15.008 6.528 0 13.055 1.242 19.205 3.72l68.406-68.46c-19.475-20.288-19.271-52.631 0.7-72.608l5.797-5.812c0.527-0.527 1.098-1.002 1.679-1.444-11.321-16.741-17.936-36.925-17.936-58.615 0-10.49 1.564-20.614 4.44-30.177-20.501-43.65-30.917-89.923-30.917-137.628 0-74.173 24.409-144.053 70.579-202.111 42.745-53.741 102.015-93.017 167.718-111.365v-85.052h-71.671c-38.316 0-69.504-31.198-69.504-69.558v-17.658c0-9.144 7.413-16.559 16.546-16.559h423.541c9.136 0 16.546 7.416 16.546 16.559v17.658c0 38.36-31.174 69.558-69.493 69.558h-71.679v56.838l73.351-1.421c0.108-0.011 0.204-0.011 0.312-0.011 18.571 0 36.022 7.234 49.143 20.374l30.917 30.93 8.080-8.084c3.232-3.235 7.465-4.852 11.709-4.852 4.233 0 8.466 1.617 11.698 4.852l120.511 120.605c6.453 6.469 6.453 16.949-0.011 23.415v0zM710.498 487.443l26.51-26.534-229.312-229.503c-5.248 11.752-13.014 22.135-22.614 30.456l225.416 225.581zM162.222 606.108c0 39.566 32.166 71.758 71.701 71.758s71.701-32.192 71.701-71.758c0-39.566-32.166-71.758-71.701-71.758s-71.701 32.192-71.701 71.758v0zM473.525 573.387l14.144-44.989-56.308-56.341-44.469 14.63 86.632 86.7zM532.19 473.061l-45.63-45.679c-0.433-0.422-1.133-0.431-1.564 0l-25.735 25.755 47.204 47.241 25.724-25.756c0.433-0.43 0.433-1.131 0-1.562v0zM251.137 802.385c5.011 0 9.718-1.962 13.284-5.531l193.269-192.47-101.595-101.664-39.502 39.058c13.852 17.776 22.125 40.093 22.125 64.331 0 57.828-47.011 104.876-104.794 104.876-24.26 0-46.6-8.313-64.385-22.22-0.237 0.279-0.485 0.56-0.745 0.831l-5.805 5.81c-7.305 7.311-7.305 19.223 0 26.531l74.878 74.951c3.555 3.535 8.262 5.498 13.27 5.498v0zM126.33 863.144l65.474-65.526-29.549-29.572-65.474 65.529 29.549 29.569zM38.426 847.749c-3.436 3.439-5.333 8.012-5.333 12.872 0 4.863 1.897 9.433 5.333 12.872l48.012 48.064c3.436 3.428 8.003 5.324 12.862 5.324s9.426-1.896 12.862-5.335c3.436-3.439 5.331-8.012 5.331-12.872 0-4.863-1.895-9.433-5.331-12.875l-48.023-48.050c-7.087-7.093-18.626-7.093-25.713 0v0zM199.129 256.828c-41.463 52.126-63.373 114.881-63.373 181.475 0 34.444 6.064 68.070 18.033 100.336 16.028-19.049 38.694-32.332 64.396-36.224-6.365-20.741-9.63-42.226-9.63-64.113 0-90.873 57.050-172.516 140.882-204.838-5.43-11.373-8.477-24.083-8.477-37.507v-36.536c-55.469 17.432-105.343 51.522-141.831 97.406v0zM623.315-29.772v-1.11h-390.437v1.11c0 20.087 16.331 36.428 36.402 36.428h317.635c20.071 0 36.4-16.341 36.4-36.428v0zM374.053 39.775v156.183c0 29.832 24.238 54.1 54.044 54.1 29.809 0 54.057-24.268 54.057-54.1v-156.183h-108.101zM688.748 173.523l-26.51 26.545 97.114 97.188 26.51-26.542-97.114-97.19zM233.967 589.549c9.145 0 16.546 7.416 16.546 16.559 0 9.141-7.402 16.559-16.546 16.559h-0.022c-9.134 0-16.535-7.419-16.535-16.559 0-9.144 7.421-16.559 16.558-16.559zM428.085 198.751c-4.341 0-8.596-1.769-11.687-4.863-3.069-3.083-4.859-7.341-4.859-11.696 0-4.366 1.79-8.636 4.859-11.719 3.080-3.072 7.347-4.841 11.687-4.841 4.374 0 8.629 1.769 11.72 4.841 3.072 3.083 4.826 7.352 4.826 11.719 0 4.355-1.754 8.636-4.826 11.696-3.091 3.094-7.347 4.863-11.72 4.863z" />
<glyph unicode="&#xe91a;" glyph-name="checknotes" horiz-adv-x="776" d="M670.301 923.012h-212.025c-0.193 0-0.389-0.022-0.583-0.022-15.907 21.435-41.4 35.354-70.097 35.354-28.684 0-54.179-13.919-70.083-35.354-0.196 0-0.389 0.022-0.583 0.022h-212.025c-57.845 0-104.907-47.052-104.907-104.884v-777.238c0-57.835 47.062-104.884 104.907-104.884h565.395c57.845 0 104.907 47.049 104.907 104.884v777.238c0 57.833-47.062 104.884-104.907 104.884v0zM387.597 925.223c29.84 0 54.115-24.27 54.115-54.104v-17.659c0-9.144 7.421-16.561 16.564-16.561h70.68c10.342 0 18.762-8.421 18.762-18.771s-8.42-18.771-18.762-18.771h-282.704c-10.353 0-18.776 8.421-18.776 18.771s8.423 18.771 18.776 18.771h70.68c9.143 0 16.564 7.416 16.564 16.561v17.659c0 29.834 24.275 54.104 54.102 54.104v0zM246.252 766.235h282.704c28.609 0 51.89 23.279 51.89 51.893 0 0.378-0.008 0.734-0.019 1.112h89.474c0.605 0 1.099-0.497 1.099-1.112v-777.238c0-0.616-0.494-1.112-1.099-1.112h-565.395c-0.605 0-1.099 0.497-1.099 1.112v777.238c0 0.616 0.494 1.112 1.099 1.112h89.474c-0.011-0.378-0.033-0.734-0.033-1.112 0-28.614 23.284-51.893 51.904-51.893v0zM742.080 40.89c0-39.569-32.201-71.763-71.778-71.763h-565.395c-39.577 0-71.778 32.194-71.778 71.763v777.238c0 39.569 32.201 71.763 71.778 71.763h197.509c-1.328-6.047-2.048-12.324-2.048-18.771v-1.099h-54.115c-15.507 0-29.44-6.845-38.962-17.659h-102.383c-18.872 0-34.227-15.354-34.227-34.234v-777.238c0-18.879 15.355-34.234 34.227-34.234h565.395c18.872 0 34.227 15.354 34.227 34.234v777.238c0 18.879-15.355 34.234-34.227 34.234h-102.394c-9.511 10.814-23.444 17.659-38.951 17.659h-54.115v1.099c0 6.448-0.723 12.724-2.059 18.771h197.52c39.577 0 71.778-32.194 71.778-71.763v-777.238zM387.597 819.24c9.157 0 16.564 7.405 16.564 16.561v35.318c0 9.155-7.407 16.561-16.564 16.561-9.143 0-16.564-7.405-16.564-16.561v-35.318c0-9.155 7.421-16.561 16.564-16.561zM369.934 571.929h212.025c9.143 0 16.564 7.416 16.564 16.561 0 9.141-7.421 16.561-16.564 16.561h-212.025c-9.143 0-16.564-7.419-16.564-16.561 0-9.144 7.421-16.561 16.564-16.561zM181.538 600.198c-6.471-6.47-6.471-16.947 0-23.417l35.34-35.332c3.233-3.235 7.473-4.852 11.711-4.852s8.475 1.617 11.711 4.852l70.68 70.664c6.468 6.467 6.468 16.947 0 23.417-6.471 6.47-16.965 6.47-23.436 0l-58.955-58.953-23.629 23.621c-6.471 6.47-16.951 6.47-23.422 0zM369.934 395.282h212.025c9.143 0 16.564 7.416 16.564 16.561 0 9.141-7.421 16.561-16.564 16.561h-212.025c-9.143 0-16.564-7.419-16.564-16.561 0-9.144 7.421-16.561 16.564-16.561zM287.544 458.883l-58.955-58.953-23.629 23.621c-6.471 6.47-16.951 6.47-23.422 0s-6.471-16.947 0-23.417l35.34-35.332c3.233-3.235 7.473-4.852 11.711-4.852s8.475 1.617 11.711 4.852l70.68 70.664c6.468 6.467 6.468 16.947 0 23.417-6.471 6.47-16.965 6.47-23.436 0zM369.934 218.635h212.025c9.143 0 16.564 7.416 16.564 16.561 0 9.141-7.421 16.561-16.564 16.561h-212.025c-9.143 0-16.564-7.419-16.564-16.561 0-9.144 7.421-16.561 16.564-16.561zM287.544 282.236l-58.955-58.953-23.629 23.621c-6.471 6.47-16.951 6.47-23.422 0s-6.471-16.947 0-23.417l35.34-35.332c3.233-3.235 7.473-4.852 11.711-4.852s8.475 1.617 11.711 4.852l70.68 70.664c6.468 6.467 6.468 16.947 0 23.417-6.471 6.47-16.965 6.47-23.436 0z" />
<glyph unicode="&#xe91b;" glyph-name="building" horiz-adv-x="1114" d="M330.109 630.574v0c10.419 0 17.369-6.94 17.369-17.326v-121.335c0-10.402-6.95-17.326-17.369-17.326h-121.619c-10.419 0-17.369 6.924-17.369 17.326v121.335c0 10.386 6.95 17.326 17.369 17.326h121.619zM1094.571-28.060h-17.374v745.296c0 10.402-6.944 17.326-17.369 17.326h-349.215v195.854c0 15.6-10.445 29.464-34.764 29.464h-55.587c-26.077 0-29.552-17.326-29.552-26.002v-51.984h-71.218v48.522c0 15.6-10.424 29.464-34.764 29.464h-57.324c-24.319 0-27.793-17.326-27.793-26.002v-199.316h-347.498c-10.424 0-17.369-6.924-17.369-17.326v-745.275h-17.374c-10.419 0-17.369-6.94-17.369-17.347 0-10.386 6.95-17.326 17.369-17.326h1077.202c10.419 0 17.369 6.94 17.369 17.326 0 10.407-6.95 17.326-17.369 17.326zM434.353 925.208h50.375v-65.853c0-8.671 8.708-20.809 17.39-20.809l105.987 5.214c10.419 0 17.369 12.138 17.369 20.788v60.66h50.375v-225.323h-46.9c-1.737 1.752-1.737 5.214-1.737 6.945v62.406c0 10.386-6.95 17.331-17.369 17.331h-105.987c-5.207 0-8.682-1.731-12.157-5.214-3.496-3.462-5.233-6.924-5.233-12.138v-69.331h-50.375c0 1.752-1.737 5.214-1.737 6.945v218.379zM519.492 734.562v17.326h71.218v-17.326h-71.218zM69.502-28.060v34.678h312.74v-34.678h-312.74zM694.955-28.060h-121.614v138.661c0 10.407-6.95 17.331-17.369 17.331-10.424 0-17.374-6.924-17.374-17.331v-138.661h-121.614v242.65h121.614v-17.326c0-10.386 6.95-17.331 17.374-17.331 10.419 0 17.369 6.945 17.369 17.331v17.326h121.614v-242.65zM225.864 509.239h86.871v86.662h-86.871v-86.662zM521.229 630.574c10.419 0 17.369-6.94 17.369-17.326v-121.335c0-10.402-6.95-17.326-17.369-17.326h-121.619c-10.419 0-17.369 6.924-17.369 17.326v121.335c0 10.386 6.95 17.326 17.369 17.326h121.619zM416.984 509.239h86.871v86.662h-86.871v-86.662zM573.341 613.248c0 10.386 6.95 17.326 17.369 17.326h121.64c10.419 0 17.369-6.94 17.369-17.326v-121.335c0-10.402-6.95-17.326-17.369-17.326h-121.64c-10.419 0-17.369 6.924-17.369 17.326v121.335zM608.105 509.239h86.85v86.662h-86.85v-86.662zM781.831 474.586c-10.419 0-17.369 6.924-17.369 17.326v121.335c0 10.386 6.95 17.326 17.369 17.326h121.619c10.419 0 17.369-6.94 17.369-17.326v-121.335c0-10.402-6.95-17.326-17.369-17.326h-121.619zM799.205 509.239h86.871v86.662h-86.871v-86.662zM330.109 439.908c10.419 0 17.369-6.919 17.369-17.326v-121.315c0-10.402-6.95-17.347-17.369-17.347h-121.619c-10.419 0-17.369 6.945-17.369 17.347v121.315c0 10.407 6.95 17.326 17.369 17.326h121.619zM225.864 318.599h86.871v86.657h-86.871v-86.657zM521.229 439.908c10.419 0 17.369-6.919 17.369-17.326v-121.315c0-10.402-6.95-17.347-17.369-17.347h-121.619c-10.419 0-17.369 6.945-17.369 17.347v121.315c0 10.407 6.95 17.326 17.369 17.326h121.619zM416.984 318.599h86.871v86.657h-86.871v-86.657zM712.35 439.908c10.419 0 17.369-6.919 17.369-17.326v-121.315c0-10.402-6.95-17.347-17.369-17.347h-121.64c-10.419 0-17.369 6.945-17.369 17.347v121.315c0 10.407 6.95 17.326 17.369 17.326h121.64zM608.105 318.599h86.85v86.657h-86.85v-86.657zM781.831 283.921c-10.419 0-17.369 6.945-17.369 17.347v121.315c0 10.407 6.95 17.326 17.369 17.326h121.619c10.419 0 17.369-6.919 17.369-17.326v-121.315c0-10.402-6.95-17.347-17.369-17.347h-121.619zM799.205 318.599h86.871v86.657h-86.871v-86.657zM330.109 249.263c10.419 0 17.369-6.919 17.369-17.326v-121.335c0-10.381-6.95-17.326-17.369-17.326h-121.619c-10.419 0-17.369 6.945-17.369 17.326v121.335c0 10.407 6.95 17.326 17.369 17.326h121.619zM225.864 127.933h86.871v86.657h-86.871v-86.657zM781.831 93.275c-10.419 0-17.369 6.924-17.369 17.326v121.335c0 10.386 6.95 17.326 17.369 17.326h121.619c10.419 0 17.369-6.94 17.369-17.326v-121.335c0-10.402-6.95-17.326-17.369-17.326h-121.619zM799.205 127.933h86.871v86.657h-86.871v-86.657zM1042.459 41.271h-17.395c-10.419 0-17.369-6.919-17.369-17.326 0-10.386 6.95-17.326 17.369-17.326h17.395v-34.658h-312.74v34.658h208.49c10.424 0 17.374 6.94 17.374 17.326 0 10.407-6.95 17.326-17.374 17.326h-208.49v190.666c0 10.407-6.95 17.326-17.369 17.326h-312.74c-10.419 0-17.369-6.919-17.369-17.326v-190.666h-312.74v658.634h330.109c1.737-15.616 12.162-34.673 31.268-34.673h53.849c19.127 0 34.764 15.595 34.764 34.673h71.218c3.475-15.616 13.92-34.673 33.026-34.673h52.112c17.369 0 33.026 15.595 34.764 34.673h331.846v-658.634z" />
<glyph unicode="&#xe91c;" horiz-adv-x="1071" d="M535.359 960c295.683 0 535.359-215.679 535.359-481.78 0-98.065-32.631-189.182-88.523-265.267 7.408-87.944 28.5-211.788 88.523-272.054 0 0-183.53 25.871-307.822 101.238-0.092-0.093-0.277-0.185-0.462-0.185-51.023 33.399-102.138 67.77-112.684 76.456-5.492 7.782-16.223 10.145-24.508 5.165-5.515-3.358-8.931-9.427-9.023-15.75-0.185-11.581 0.092-14.569 103.038-81.968-57.323-18.83-119.261-29.415-183.899-29.415-295.66 0-535.359 215.702-535.359 481.78 0 266.101 239.699 481.78 535.359 481.78v0z" />
<glyph unicode="&#xe91d;" horiz-adv-x="1071" d="M553.844 607.97h-276.922c-10.177 0-18.485 8.315-18.485 18.552 0 10.214 8.308 18.436 18.485 18.436h276.922c10.177 0 18.485-8.222 18.485-18.436 0-10.237-8.308-18.552-18.485-18.552v0z" />
<glyph unicode="&#xe91e;" horiz-adv-x="1071" d="M793.796 459.668h-516.875c-10.177 0-18.485 8.338-18.485 18.552 0 10.237 8.308 18.552 18.485 18.552h516.875c10.2 0 18.485-8.315 18.485-18.552 0-10.214-8.285-18.552-18.485-18.552v0z" />
<glyph unicode="&#xe91f;" horiz-adv-x="1071" d="M793.796 311.482h-516.875c-10.177 0-18.485 8.315-18.485 18.552 0 10.214 8.308 18.552 18.485 18.552h516.875c10.2 0 18.485-8.338 18.485-18.552 0-10.237-8.285-18.552-18.485-18.552v0z" />
<glyph unicode="&#xe920;" horiz-adv-x="1071" d="M535.359 960c295.683 0 535.359-215.679 535.359-481.78 0-98.065-32.631-189.182-88.523-265.267 7.408-87.944 28.5-211.788 88.523-272.054 0 0-183.53 25.871-307.822 101.238-0.092-0.093-0.277-0.185-0.462-0.185-51.023 33.399-102.138 67.77-112.684 76.456-5.492 7.782-16.223 10.145-24.508 5.165-5.515-3.358-8.931-9.427-9.023-15.75-0.185-11.581 0.092-14.569 103.038-81.968-57.323-18.83-119.261-29.415-183.899-29.415-295.66 0-535.359 215.702-535.359 481.78 0 266.101 239.699 481.78 535.359 481.78v0z" />
<glyph unicode="&#xe921;" horiz-adv-x="1071" d="M553.844 607.97h-276.922c-10.177 0-18.485 8.315-18.485 18.552 0 10.214 8.308 18.436 18.485 18.436h276.922c10.177 0 18.485-8.222 18.485-18.436 0-10.237-8.308-18.552-18.485-18.552v0z" />
<glyph unicode="&#xe922;" horiz-adv-x="1071" d="M793.796 459.668h-516.875c-10.177 0-18.485 8.338-18.485 18.552 0 10.237 8.308 18.552 18.485 18.552h516.875c10.2 0 18.485-8.315 18.485-18.552 0-10.214-8.285-18.552-18.485-18.552v0z" />
<glyph unicode="&#xe923;" horiz-adv-x="1071" d="M793.796 311.482h-516.875c-10.177 0-18.485 8.315-18.485 18.552 0 10.214 8.308 18.552 18.485 18.552h516.875c10.2 0 18.485-8.338 18.485-18.552 0-10.237-8.285-18.552-18.485-18.552v0z" />
<glyph unicode="&#xe924;" glyph-name="calculator" horiz-adv-x="986" d="M862.674 958.344h-740.385c-67.428 0-122.29-54.976-122.29-122.543v-777.252c0-67.567 54.862-122.543 122.29-122.543h740.385c67.441 0 122.303 54.976 122.303 122.543v777.252c0 67.567-54.862 122.543-122.303 122.543v0zM951.925 58.549c0-49.315-40.038-89.422-89.251-89.422h-740.385c-49.202 0-89.237 40.107-89.237 89.422v777.252c0 49.304 40.035 89.422 89.237 89.422h740.385c49.213 0 89.251-40.118 89.251-89.422v-777.252zM280.948 269.416h-141.022c-28.555 0-51.785-23.276-51.785-51.879v-141.329c0-28.603 23.231-51.879 51.785-51.879h141.022c28.555 0 51.785 23.276 51.785 51.879v141.329c0 28.603-23.231 51.879-51.785 51.879v0zM299.681 76.208c0-10.339-8.404-18.758-18.733-18.758h-141.022c-10.329 0-18.733 8.418-18.733 18.758v141.329c0 10.339 8.404 18.758 18.733 18.758h141.022c10.329 0 18.733-8.418 18.733-18.758v-141.329zM280.948 552.059h-141.022c-28.555 0-51.785-23.279-51.785-51.893v-141.315c0-28.614 23.231-51.893 51.785-51.893h141.022c28.555 0 51.785 23.279 51.785 51.893v141.315c0 28.614-23.231 51.893-51.785 51.893v0zM299.681 358.851c0-10.35-8.404-18.771-18.733-18.771h-141.022c-10.329 0-18.733 8.421-18.733 18.771v141.315c0 10.35 8.404 18.771 18.733 18.771h141.022c10.329 0 18.733-8.421 18.733-18.771v-141.315zM562.993 269.416h-141.022c-28.555 0-51.785-23.276-51.785-51.879v-141.329c0-28.603 23.231-51.879 51.785-51.879h141.022c28.558 0 51.785 23.276 51.785 51.879v141.329c0 28.603-23.228 51.879-51.785 51.879v0zM581.726 76.208c0-10.339-8.404-18.758-18.733-18.758h-141.022c-10.329 0-18.733 8.418-18.733 18.758v141.329c0 10.339 8.404 18.758 18.733 18.758h141.022c10.329 0 18.733-8.418 18.733-18.758v-141.329zM562.993 552.059h-141.022c-28.555 0-51.785-23.279-51.785-51.893v-141.315c0-28.614 23.231-51.893 51.785-51.893h141.022c28.558 0 51.785 23.279 51.785 51.893v141.315c0 28.614-23.228 51.893-51.785 51.893v0zM581.726 358.851c0-10.35-8.404-18.771-18.733-18.771h-141.022c-10.329 0-18.733 8.421-18.733 18.771v141.315c0 10.35 8.404 18.771 18.733 18.771h141.022c10.329 0 18.733-8.421 18.733-18.771v-141.315zM845.052 552.059h-141.022c-28.558 0-51.785-23.279-51.785-51.893v-423.958c0-28.603 23.228-51.879 51.785-51.879h141.022c28.555 0 51.785 23.276 51.785 51.879v423.958c0 28.614-23.231 51.893-51.785 51.893v0zM863.784 76.208c0-10.339-8.404-18.758-18.733-18.758h-141.022c-10.329 0-18.733 8.418-18.733 18.758v423.958c0 10.35 8.404 18.771 18.733 18.771h141.022c10.329 0 18.733-8.421 18.733-18.771v-423.958zM845.052 870.020h-705.126c-28.555 0-51.785-23.279-51.785-51.893v-176.647c0-28.614 23.231-51.893 51.785-51.893h705.126c28.555 0 51.785 23.279 51.785 51.893v176.647c0 28.614-23.231 51.893-51.785 51.893v0zM863.784 641.481c0-10.35-8.404-18.771-18.733-18.771h-705.126c-10.329 0-18.733 8.421-18.733 18.771v176.647c0 10.35 8.404 18.771 18.733 18.771h705.126c10.329 0 18.733-8.421 18.733-18.771v-176.647zM245.689 446.062h-18.733v18.771c0 9.144-7.39 16.561-16.526 16.561-9.123 0-16.526-7.416-16.526-16.561v-18.771h-18.719c-9.136 0-16.526-7.405-16.526-16.561 0-9.141 7.39-16.561 16.526-16.561h18.719v-18.758c0-9.155 7.404-16.561 16.526-16.561 9.136 0 16.526 7.405 16.526 16.561v18.758h18.733c9.125 0 16.526 7.419 16.526 16.561 0 9.155-7.401 16.561-16.526 16.561v0zM527.748 446.062h-70.518c-9.123 0-16.526-7.405-16.526-16.561 0-9.141 7.404-16.561 16.526-16.561h70.518c9.123 0 16.526 7.419 16.526 16.561 0 9.155-7.404 16.561-16.526 16.561v0zM527.748 163.433h-70.518c-9.123 0-16.526-7.419-16.526-16.561 0-9.144 7.404-16.561 16.526-16.561h70.518c9.123 0 16.526 7.416 16.526 16.561 0 9.141-7.404 16.561-16.526 16.561v0zM492.489 183.303c4.335 0 8.619 1.769 11.673 4.863 3.088 3.061 4.853 7.353 4.853 11.697 0 4.355-1.766 8.636-4.853 11.708-3.055 3.086-7.338 4.852-11.673 4.852-4.346 0-8.619-1.766-11.684-4.852-3.079-3.072-4.842-7.331-4.842-11.708 0-4.366 1.763-8.636 4.842-11.697 3.066-3.094 7.338-4.863 11.684-4.863v0zM492.489 110.442c-4.346 0-8.619-1.769-11.684-4.863-3.079-3.061-4.842-7.353-4.842-11.697 0-4.355 1.763-8.636 4.842-11.708 3.066-3.086 7.338-4.852 11.684-4.852 4.357 0 8.619 1.766 11.673 4.852 3.088 3.094 4.853 7.353 4.853 11.708 0 4.344-1.766 8.636-4.853 11.697-3.055 3.094-7.316 4.863-11.673 4.863v0zM809.793 269.416h-70.518c-9.123 0-16.526-7.405-16.526-16.561 0-9.141 7.404-16.561 16.526-16.561h70.518c9.123 0 16.526 7.419 16.526 16.561 0 9.155-7.404 16.561-16.526 16.561v0zM809.793 340.080h-70.518c-9.123 0-16.526-7.419-16.526-16.561 0-9.144 7.404-16.561 16.526-16.561h70.518c9.123 0 16.526 7.416 16.526 16.561 0 9.141-7.404 16.561-16.526 16.561v0zM257.374 193.913c-6.454 6.47-16.912 6.47-23.368 0l-23.575-23.624-23.561 23.624c-6.456 6.47-16.926 6.47-23.371 0-6.454-6.47-6.454-16.961 0-23.417l23.564-23.624-23.564-23.624c-6.454-6.467-6.454-16.947 0-23.417 3.217-3.235 7.456-4.852 11.687-4.852 4.228 0 8.456 1.617 11.684 4.852l23.561 23.624 23.575-23.624c3.228-3.235 7.456-4.852 11.684-4.852s8.459 1.617 11.684 4.852c6.456 6.47 6.456 16.961 0 23.417l-23.561 23.624 23.561 23.624c6.456 6.456 6.456 16.947 0 23.417v0z" />
<glyph unicode="&#xe925;" glyph-name="baloon" horiz-adv-x="1071" d="M1070.7 475.8c0 266.1-239.7 481.8-535.4 481.8v0c-295.6 0-535.3-215.7-535.3-481.8s239.7-481.8 535.4-481.8c64.6 0 126.6 10.6 183.9 29.4-102.9 67.4-103.2 70.4-103 82 0.1 6.3 3.5 12.4 9 15.8 8.3 5 19 2.6 24.5-5.2 10.5-8.7 61.7-43.1 112.7-76.5 0.2 0 0.4 0.1 0.5 0.2 124.3-75.4 307.8-101.2 307.8-101.2-60 60.3-81.1 184.1-88.5 272.1 55.8 76 88.4 167.1 88.4 265.2zM276.9 642.5h276.9c10.2 0 18.5-8.2 18.5-18.4s-8.3-18.6-18.5-18.6h-276.9c-10.2 0-18.5 8.3-18.5 18.6 0 10.2 8.3 18.4 18.5 18.4zM793.8 309h-516.9c-10.2 0-18.5 8.3-18.5 18.6 0 10.2 8.3 18.6 18.5 18.6h516.9c10.2 0 18.5-8.3 18.5-18.6s-8.3-18.6-18.5-18.6zM793.8 457.2h-516.9c-10.2 0-18.5 8.3-18.5 18.6 0 10.2 8.3 18.6 18.5 18.6h516.9c10.2 0 18.5-8.3 18.5-18.6 0-10.2-8.3-18.6-18.5-18.6z" />
<glyph unicode="&#xe926;" glyph-name="Replace" horiz-adv-x="1260" d="M1250.319 509.767l-148.81 146.459c-30.357 30.2-49.124 28.404-77.649 0l-148.815-146.459c-21.387-34.739-3.93-63.17 38.805-63.17h68.838c-1.095-189.834-153.862-349.217-348.637-348.319-95.239 0.383-182.734 38.611-245.188 101.184l-113.791-109.053c91.914-92.023 218.837-148.945 358.979-148.945 279.287 0 505.747 225.97 507.552 505.1h69.867c42.784 0.033 60.22 28.508 38.849 63.203zM345.588 448.672h-68.937v0.559c0 191.099 153.251 351.895 348.692 350.997 95.305-0.433 182.822-38.742 245.21-101.349l113.791 109.218c-91.865 92.171-218.809 149.154-359.001 149.154-280.135 0-507.227-227.591-507.629-508.49h-69.746c-42.735 0-60.22-28.426-38.844-63.253l148.804-146.761c29.521-29.367 47.281-30.287 77.693 0l148.815 146.761c21.365 34.789 3.874 63.165-38.849 63.165z" />
</font>
</defs>
</svg>
